<svg xmlns="http://www.w3.org/2000/svg" id="b8c8819e-8771-4c52-802a-a7910b277f08" data-name="Layer 1" width="56.3638" height="33" viewBox="0 0 56.3638 33"><path d="M53,5H9A4.0045,4.0045,0,0,0,5,9V29a4.0042,4.0042,0,0,0,4,4H53a4.0039,4.0039,0,0,0,4-4V9A4.0042,4.0042,0,0,0,53,5Zm2,24a2.0027,2.0027,0,0,1-2,2H9a2.0023,2.0023,0,0,1-2-2V9A2.002,2.002,0,0,1,9,7H53a2.0023,2.0023,0,0,1,2,2Z" transform="translate(-0.6362)"></path><path d="M30.5,13A6.5,6.5,0,1,0,37,19.5,6.5075,6.5075,0,0,0,30.5,13Zm0,11A4.5,4.5,0,1,1,35,19.5,4.505,4.505,0,0,1,30.5,24Z" transform="translate(-0.6362)"></path><path d="M28.9092,1a1,1,0,0,0-1-1H1.6362a1,1,0,0,0,0,2h26.273A1,1,0,0,0,28.9092,1Z" transform="translate(-0.6362)"></path></svg>