<svg xmlns="http://www.w3.org/2000/svg" id="ef14b377-f5e4-4a97-9b1e-a3f09eae764c" data-name="Layer 1" width="44" height="49.2725" viewBox="0 0 44 49.2725"><path d="M41.2857,20.1667H36.7619V2.75A2.7323,2.7323,0,0,0,34.0476,0H8.7143A2.7323,2.7323,0,0,0,6,2.75V39.4167A4.5594,4.5594,0,0,0,10.5238,44H39.4762A4.5594,4.5594,0,0,0,44,39.4167v-16.5A2.7323,2.7323,0,0,0,41.2857,20.1667Zm-30.7619,22a2.7324,2.7324,0,0,1-2.7143-2.75V2.75a.9108.9108,0,0,1,.9048-.9167H34.0476a.9108.9108,0,0,1,.9048.9167V39.4167a4.574,4.574,0,0,0,.9283,2.75Zm31.6667-2.75a2.7145,2.7145,0,1,1-5.4286,0V22h4.5238a.9108.9108,0,0,1,.9048.9167Z"></path><path d="M29,24H14a1,1,0,0,0,0,2H29a1,1,0,0,0,0-2Z"></path><path d="M29,16H14a1,1,0,0,0,0,2H29a1,1,0,0,0,0-2Z"></path><path d="M29,9H14a1,1,0,0,0,0,2H29a1,1,0,0,0,0-2Z"></path><path d="M1,21a1,1,0,0,0-1,1V48.2725a1,1,0,0,0,2,0V22A1,1,0,0,0,1,21Z"></path></svg>