<svg xmlns="http://www.w3.org/2000/svg" id="f9915a57-d40b-457a-8474-c457a01f84cf" data-name="Layer 1" width="69.3635" height="26.0005" viewBox="0 0 69.3635 26.0005"><path d="M69.3174,13.5762a1,1,0,0,0-.8174-.6914l-6.3984-.88L59.25,6.5376a1.0408,1.0408,0,0,0-1.7734,0L54.626,12.0049l-6.3985.88a1,1,0,0,0-.542,1.7256L52.2812,18.85l-1.082,5.9717a1.0005,1.0005,0,0,0,1.43,1.0742l5.7344-2.8535,5.7353,2.8535a1,1,0,0,0,1.43-1.0742L64.4453,18.85,69.041,14.61A.9973.9973,0,0,0,69.3174,13.5762ZM62.6855,17.752a1.0022,1.0022,0,0,0-.3066.914l.8252,4.5508-4.3955-2.1875a1.0051,1.0051,0,0,0-.8906,0l-4.3955,2.1875.8252-4.5508a1.002,1.002,0,0,0-.3067-.914L50.6,14.5771l4.81-.6611a1,1,0,0,0,.751-.5283l2.2031-4.2251,2.2041,4.2251a1.0012,1.0012,0,0,0,.75.5283l4.81.6611Z"></path><path d="M45.5,12.8848l-6.3984-.88L36.25,6.5376a1.04,1.04,0,0,0-1.7729,0l-2.8516,5.4673-6.398.88a1,1,0,0,0-.542,1.7256L29.2817,18.85l-1.0825,5.9717a1,1,0,0,0,1.4292,1.0742l5.7354-2.8535,5.7348,2.8535a1,1,0,0,0,1.43-1.0742L41.4453,18.85,46.041,14.61a1,1,0,0,0-.541-1.7256ZM39.6855,17.752a1.0022,1.0022,0,0,0-.3066.914l.8252,4.5508-4.395-2.1875a1.0019,1.0019,0,0,0-.8906,0l-4.3956,2.1875.8248-4.5508a1.0014,1.0014,0,0,0-.3057-.914L27.6,14.5771l4.81-.6611a1,1,0,0,0,.7505-.5283l2.2036-4.2251,2.2036,4.2251a1,1,0,0,0,.75.5283l4.81.6611Z"></path><path d="M21.5,12.8848l-6.3984-.88L12.2505,6.5376a1,1,0,0,0-1.7734,0L7.6255,12.0049l-6.398.88A1,1,0,0,0,.6855,14.61L5.2817,18.85,4.1992,24.8213a1,1,0,0,0,1.4292,1.0742l5.7354-2.8535,5.7348,2.8535a1,1,0,0,0,1.4292-1.0742L17.4458,18.85,22.042,14.61a1,1,0,0,0-.542-1.7256ZM15.6855,17.752a1.0013,1.0013,0,0,0-.3056.914l.8247,4.5508-4.3955-2.1875a1.001,1.001,0,0,0-.8906,0L6.5229,23.2168l.8248-4.5508a1.0014,1.0014,0,0,0-.3057-.914L3.6,14.5771l4.81-.6611a1,1,0,0,0,.75-.5283l2.2036-4.2251,2.2031,4.2251a1,1,0,0,0,.75.5283l4.8105.6611Z"></path><path d="M27.2725,2a1,1,0,0,0,0-2H1A1,1,0,0,0,1,2Z"></path></svg>