<svg xmlns="http://www.w3.org/2000/svg" id="ec3ae0fa-8257-44f1-b200-23a8a2727b2e" data-name="Layer 1" width="50.8584" height="43" viewBox="0 0 50.8584 43"><path d="M29.5,0A21.5,21.5,0,1,0,51,21.5,21.5243,21.5243,0,0,0,29.5,0Zm0,40.6283A19.1283,19.1283,0,1,1,48.6283,21.5,19.15,19.15,0,0,1,29.5,40.6283Z" transform="translate(-0.1416)"></path><rect x="28.4984" y="5.16" width="2.58" height="2.58"></rect><rect x="28.4984" y="35.26" width="2.58" height="2.58"></rect><rect x="43.1184" y="19.78" width="2.58" height="2.58"></rect><rect x="13.0184" y="19.78" width="2.58" height="2.58"></rect><rect x="38.659" y="9.0485" width="2.322" height="2.543" transform="translate(4.0871 30.9451) rotate(-44.6217)"></rect><rect x="17.159" y="30.5484" width="2.3219" height="2.5432" transform="translate(-17.2117 22.0384) rotate(-44.6188)"></rect><polygon points="38.818 31.948 40.511 33.54 42.258 31.692 40.566 30.1 38.818 31.948"></polygon><polygon points="16.458 10.448 18.151 12.04 19.898 10.192 18.206 8.6 16.458 10.448"></polygon><polygon points="30.788 13.278 28.788 13.278 28.788 23.277 37.121 23.277 37.121 21.277 30.788 21.277 30.788 13.278"></polygon><path d="M10.0244,3.1294A1,1,0,0,0,8.7188,1.6138C3.0273,6.5161.1416,13.207.1416,21.5a1,1,0,0,0,2,0C2.1416,13.8154,4.7935,7.6343,10.0244,3.1294Z" transform="translate(-0.1416)"></path></svg>